<?xml version="1.0" encoding="UTF-8" standalone="no"?>
<svg
   xmlns:dc="http://purl.org/dc/elements/1.1/"
   xmlns:cc="http://creativecommons.org/ns#"
   xmlns:rdf="http://www.w3.org/1999/02/22-rdf-syntax-ns#"
   xmlns:svg="http://www.w3.org/2000/svg"
   xmlns="http://www.w3.org/2000/svg"
   xmlns:sodipodi="http://sodipodi.sourceforge.net/DTD/sodipodi-0.dtd"
   xmlns:inkscape="http://www.inkscape.org/namespaces/inkscape"
   id="Layer_1"
   style="enable-background:new 0 0 512 512;"
   version="1.1"
   viewBox="0 0 512 512"
   xml:space="preserve"
   sodipodi:docname="new twitch.svg"
   inkscape:version="0.92.2 (5c3e80d, 2017-08-06)"><metadata
     id="metadata15"><rdf:RDF><cc:Work
         rdf:about=""><dc:format>image/svg+xml</dc:format><dc:type
           rdf:resource="http://purl.org/dc/dcmitype/StillImage" /><dc:title></dc:title></cc:Work></rdf:RDF></metadata><defs
     id="defs13" /><sodipodi:namedview
     pagecolor="#ffffff"
     bordercolor="#666666"
     borderopacity="1"
     objecttolerance="10"
     gridtolerance="10"
     guidetolerance="10"
     inkscape:pageopacity="0"
     inkscape:pageshadow="2"
     inkscape:window-width="1618"
     inkscape:window-height="1027"
     id="namedview11"
     showgrid="false"
     inkscape:zoom="1.6210938"
     inkscape:cx="256"
     inkscape:cy="256"
     inkscape:window-x="54"
     inkscape:window-y="-8"
     inkscape:window-maximized="1"
     inkscape:current-layer="Layer_1" /><style
     type="text/css"
     id="style2">
	.st0{fill:#6441A5;}
	.st1{fill-rule:evenodd;clip-rule:evenodd;fill:#FFFFFF;}
</style>
<g id="g8"><path class="st0" d="M512,397.1c0,63.5-51.5,114.9-114.9,114.9H114.9C51.5,512,0,460.5,0,397.1V114.9C0,51.5,51.5,0,114.9,0h282.2   C460.5,0,512,51.5,512,114.9V397.1z" id="path4"/><path d="M317.75,369h-61.5l-30.75,41h-41v-41h-71.75V154.775l20.5-52.275h266.5v184.5L317.75,369z M369,276.75V133.25H153.75v194.75h61.5v41l41-41h61.5L369,276.75z" fill="#FFFFFF" id="Dialog"/><rect fill="#FFFFFF" height="82" id="_x7C_" width="31" x="287" y="185"/><rect fill="#FFFFFF" height="82" id="_x7C__2_" width="31" x="226" y="185"/></g></svg>